Music_Cities1_Ch1::
	tempo 234
	duty 3
	notetype 12, 12, 5
	rest 16
	rest 16
	rest 16
	rest 16

Music_Cities1_Ch1_branch_1::
	notetype 12, 10, 5
	octave 2
	C_ 4
	C_ 4
	D_ 4
	D_ 4
	F_ 4
	F_ 4
	D_ 4
	D_ 4
	F_ 4
	C_ 4
	E_ 4
	D_ 4
	F_ 4
	F_ 4
	octave 1
	A# 4
	octave 2
	C_ 4
	C_ 4
	C_ 4
	D_ 4
	D_ 4
	F_ 4
	F_ 4
	D_ 4
	D_ 4
	F_ 4
	C_ 4
	octave 1
	F_ 4
	octave 2
	D_ 4
	notetype 12, 8, 7
	rest 2
	C_ 4
	A_ 4
	rest 2
	C_ 4
	rest 2
	C_ 4
	F_ 4
	C_ 4
	rest 2
	A_ 4
	F_ 4
	E_ 2
	D_ 2
	F_ 4
	rest 4
	C_ 4
	G_ 2
	A_ 2
	F_ 4
	octave 1
	F_ 8
	rest 16
	octave 2
	C_ 6
	D_ 2
	C_ 3
	D_ 1
	C_ 4
	octave 1
	F_ 8
	loopchannel 0, Music_Cities1_Ch1_branch_1


Music_Cities1_Ch2::
	duty 2
	notetype 12, 13, 5
	rest 16
	rest 16
	rest 16
	rest 16

Music_Cities1_Ch2_branch_1::
	rest 16
	rest 16
	octave 2
	D_ 2
	A_ 1
	G_ 1
	F_ 3
	A# 1
	octave 3
	C_ 2
	octave 2
	A_ 2
	F_ 4
	rest 16
	octave 3
	G_ 1
	F_ 3
	C_ 4
	G_ 2
	A_ 2
	F_ 4
	G_ 1
	F_ 3
	C_ 4
	E_ 2
	D_ 2
	F_ 4
	rest 4
	C_ 4
	F_ 4
	rest 8
	C_ 4
	F_ 4
	rest 4
	C_ 4
	A_ 4
	F_ 4
	rest 10
	C_ 2
	A_ 4
	F_ 4
	rest 8
	notetype 12, 13, 7
	A_ 8
	F_ 8
	rest 8
	notetype 12, 13, 5
	C_ 6
	D_ 2
	C_ 3
	D_ 1
	C_ 4
	octave 2
	F_ 8
	rest 8
	loopchannel 0, Music_Cities1_Ch2_branch_1


Music_Cities1_Ch3::
	notetype 12, 2, 6
	toggleperfectpitch

Music_Cities1_Ch3_branch_1::
	octave 2
	F_ 2
	octave 3
	C_ 2
	F_ 2
	C_ 2
	octave 2
	A# 2
	octave 3
	D_ 2
	F_ 2
	D_ 2
	octave 2
	F_ 2
	octave 3
	C_ 2
	F_ 2
	C_ 2
	octave 2
	A# 2
	octave 3
	F_ 2
	A_ 2
	F_ 2
	loopchannel 0, Music_Cities1_Ch3_branch_1
