Music_MeetProfOak_Ch1::
	tempo 118
	volume 7, 7
	vibrato 18, 3, 4
	duty 3
	notetype 12, 9, 8
	octave 2
	F# 1
	B_ 1
	octave 3
	D# 1
	F# 1
	A_ 16
	G# 8
	notetype 12, 9, 7
	G# 8
	notetype 12, 9, 1

Music_MeetProfOak_Ch1_branch_1::
	callchannel Music_MeetProfOak_Ch1_branch_3
	callchannel Music_MeetProfOak_Ch1_branch_3
	callchannel Music_MeetProfOak_Ch1_branch_4
	callchannel Music_MeetProfOak_Ch1_branch_4
	loopchannel 2, Music_MeetProfOak_Ch1_branch_1

Music_MeetProfOak_Ch1_branch_2::
	callchannel Music_MeetProfOak_Ch1_branch_5
	callchannel Music_MeetProfOak_Ch1_branch_5
	callchannel Music_MeetProfOak_Ch1_branch_6
	callchannel Music_MeetProfOak_Ch1_branch_6
	callchannel Music_MeetProfOak_Ch1_branch_5
	callchannel Music_MeetProfOak_Ch1_branch_5
	callchannel Music_MeetProfOak_Ch1_branch_6
	callchannel Music_MeetProfOak_Ch1_branch_6
	loopchannel 0, Music_MeetProfOak_Ch1_branch_2

Music_MeetProfOak_Ch1_branch_3::
	octave 2
	B_ 2
	octave 3
	E_ 2
	G# 2
	E_ 2
	B_ 2
	E_ 2
	G# 2
	E_ 2
	endchannel

Music_MeetProfOak_Ch1_branch_4::
	octave 2
	B_ 2
	octave 3
	D# 2
	F# 2
	D# 2
	B_ 2
	D# 2
	F# 2
	D# 2
	endchannel

Music_MeetProfOak_Ch1_branch_5::
	octave 2
	A_ 2
	octave 3
	C# 2
	E_ 2
	C# 1
	E_ 1
	C# 2
	notetype 12, 9, 2
	A_ 2
	notetype 12, 9, 1
	C# 2
	notetype 12, 9, 2
	E_ 2
	notetype 12, 9, 1
	endchannel

Music_MeetProfOak_Ch1_branch_6::
	octave 2
	B_ 1
	octave 3
	E_ 1
	notetype 12, 9, 2
	G# 4
	E_ 4
	notetype 12, 9, 1
	E_ 1
	G# 1
	notetype 12, 9, 2
	B_ 4
	notetype 12, 9, 1
	endchannel


Music_MeetProfOak_Ch2::
	vibrato 18, 3, 4
	duty 3
	notetype 12, 10, 8
	octave 3
	B_ 1
	octave 4
	D# 1
	F# 1
	A# 1
	B_ 16
	notetype 12, 10, 7
	B_ 10
	duty 2

Music_MeetProfOak_Ch2_branch_1::
	notetype 12, 11, 2
	octave 3
	B_ 2
	octave 4
	C# 2
	D# 2
	E_ 4
	D# 2
	C# 4
	notetype 12, 9, 1
	B_ 2
	octave 5
	C# 2
	D# 2
	E_ 4
	D# 2
	C# 4
	notetype 12, 11, 2
	octave 3
	B_ 2
	A_ 2
	G# 2
	A_ 4
	B_ 1
	rest 1
	B_ 4
	notetype 12, 9, 1
	octave 4
	B_ 2
	A_ 2
	G# 2
	A_ 4
	B_ 2
	B_ 4
	loopchannel 2, Music_MeetProfOak_Ch2_branch_1
	rest 6
	notetype 12, 11, 4

Music_MeetProfOak_Ch2_branch_2::
	C# 6
	octave 3
	A_ 1
	octave 4
	C# 1
	E_ 6
	C# 1
	E_ 1
	F# 4
	E_ 4
	D# 4
	C# 4
	octave 3
	B_ 6
	G# 1
	B_ 1
	octave 4
	E_ 8
	notetype 12, 8, 2
	B_ 6
	G# 1
	B_ 1
	notetype 12, 8, 3
	octave 5
	E_ 8
	notetype 12, 11, 4
	octave 3
	A_ 6
	F# 1
	A_ 1
	octave 4
	D# 8
	E_ 4
	D# 4
	C# 4
	C_ 4
	octave 3
	B_ 6
	G# 1
	B_ 1
	octave 4
	E_ 6
	octave 3
	B_ 1
	octave 4
	E_ 1
	G# 16
	loopchannel 0, Music_MeetProfOak_Ch2_branch_2


Music_MeetProfOak_Ch3::
	notetype 12, 1, 4
	rest 4
	octave 3
	E_ 2
	rest 2
	octave 4
	E_ 1
	rest 1
	octave 3
	A_ 2
	rest 2
	octave 2
	B_ 2
	octave 3
	B_ 1
	rest 1
	E_ 2
	callchannel Music_MeetProfOak_Ch3_branch_3

Music_MeetProfOak_Ch3_branch_1::
	callchannel Music_MeetProfOak_Ch3_branch_3
	callchannel Music_MeetProfOak_Ch3_branch_3
	callchannel Music_MeetProfOak_Ch3_branch_4
	callchannel Music_MeetProfOak_Ch3_branch_4
	loopchannel 2, Music_MeetProfOak_Ch3_branch_1

Music_MeetProfOak_Ch3_branch_2::
	callchannel Music_MeetProfOak_Ch3_branch_5
	callchannel Music_MeetProfOak_Ch3_branch_5
	callchannel Music_MeetProfOak_Ch3_branch_6
	callchannel Music_MeetProfOak_Ch3_branch_6
	callchannel Music_MeetProfOak_Ch3_branch_5
	callchannel Music_MeetProfOak_Ch3_branch_5
	callchannel Music_MeetProfOak_Ch3_branch_6
	callchannel Music_MeetProfOak_Ch3_branch_6
	loopchannel 0, Music_MeetProfOak_Ch3_branch_2

Music_MeetProfOak_Ch3_branch_3::
	E_ 2
	rest 2
	octave 4
	E_ 1
	rest 1
	octave 3
	G# 2
	rest 2
	octave 2
	B_ 2
	octave 3
	B_ 1
	rest 1
	E_ 2
	endchannel

Music_MeetProfOak_Ch3_branch_4::
	octave 2
	B_ 2
	rest 2
	octave 4
	D# 1
	rest 1
	octave 3
	D# 2
	rest 2
	F# 2
	B_ 1
	rest 1
	D# 2
	endchannel

Music_MeetProfOak_Ch3_branch_5::
	octave 2
	A_ 2
	rest 2
	octave 3
	A_ 1
	rest 1
	octave 2
	A_ 2
	rest 2
	octave 3
	E_ 2
	A_ 1
	rest 1
	C# 2
	endchannel

Music_MeetProfOak_Ch3_branch_6::
	octave 2
	G# 2
	rest 2
	octave 3
	G# 1
	rest 1
	octave 2
	G# 2
	rest 2
	octave 3
	E_ 2
	G# 1
	rest 1
	octave 2
	B_ 2
	endchannel
