Music_MeetEvilTrainer_Ch1:: ; 7f69d (1f:769d)
	tempo 0, 100
	stereopanning 119
	duty 2
	togglecall
	notetype 12, 11, 0

Music_MeetEvilTrainer_branch_7f6ae::
	octave 1
	callchannel Music_MeetEvilTrainer_1
	callchannel Music_MeetEvilTrainer_Ch1_1
	callchannel Music_MeetEvilTrainer_1
	note F#, 2
	note D#, 1
	rest 1
	note A#, 2
	note B_, 1
	rest 1
	octave 2
	note D_, 2
	octave 1
	note B_, 1
	rest 1
	callchannel Music_MeetEvilTrainer_1
	callchannel Music_MeetEvilTrainer_Ch1_1
	callchannel Music_MeetEvilTrainer_1
	note F#, 2
	note D#, 1
	rest 9

	octave 2
	note D_, 2
	octave 1
	callchannel Music_MeetEvilTrainer_2
	callchannel Music_MeetEvilTrainer_Ch1_2
	octave 2
	note D_, 2
	octave 1
	callchannel Music_MeetEvilTrainer_2
	note F#, 2
	note G_, 1
	rest 1
	note A#, 2
	octave 2
	note D#, 1
	rest 1
	note F#, 2
	note D#, 1
	rest 1
	note D_, 2
	octave 1
	callchannel Music_MeetEvilTrainer_2
	callchannel Music_MeetEvilTrainer_Ch1_2
	octave 2
	note D_, 2
	octave 1
	callchannel Music_MeetEvilTrainer_2
	note A#, 2
	note G_, 1
	rest 9
	loopchannel 0, Music_MeetEvilTrainer_branch_7f6ae

Music_MeetEvilTrainer_1:
	note A#, 2
	note D#, 1
	rest 1
	note D#, 1
	rest 1
	note D#, 1
	rest 1
	note D#, 1
	rest 1
	note D#, 1
	rest 1
	endchannel

Music_MeetEvilTrainer_Ch1_1:
	note A#, 2
	note D#, 1
	rest 1
	note A#, 1
	rest 1
	note B_, 2
	octave 2
	note F#, 1
	octave 1
	rest 1
	note B_, 1
	rest 1
	endchannel

Music_MeetEvilTrainer_2:
	note G_, 1
	rest 1
	note G_, 1
	rest 1
	note G_, 1
	rest 1
	note G_, 1
	rest 1
	note G_, 1
	rest 1
	endchannel

Music_MeetEvilTrainer_Ch1_2:
	octave 2
	note D_, 2
	octave 1
	note G_, 1
	rest 1
	octave 2
	note D_, 1
	rest 1
	note D#, 2
	note A#, 1
	rest 1
	note D#, 1
	rest 1
	endchannel


Music_MeetEvilTrainer_Ch2:: ; 7f6ba (1f:76ba)
	duty 1
	notetype 12, 11, 6

Music_MeetEvilTrainer_branch_7f6c2::
	octave 2
	callchannel Music_MeetEvilTrainer_1
	callchannel Music_MeetEvilTrainer_Ch2_1
	callchannel Music_MeetEvilTrainer_1
	note F#, 2
	note D#, 1
	rest 1
	note A#, 2
	note B_, 1
	rest 1
	octave 3
	note D_, 2
	octave 2
	note B_, 1
	rest 1
	callchannel Music_MeetEvilTrainer_1
	callchannel Music_MeetEvilTrainer_Ch2_1
	callchannel Music_MeetEvilTrainer_1
	note F#, 2
	note D#, 1
	rest 9

	octave 3
	note D_, 2
	octave 2
	callchannel Music_MeetEvilTrainer_2
	callchannel Music_MeetEvilTrainer_Ch2_2
	octave 3
	note D_, 2
	octave 2
	callchannel Music_MeetEvilTrainer_2
	note F#, 2
	note G_, 1
	rest 1
	note A#, 2
	octave 3
	note D#, 1
	rest 1
	note F#, 2
	note D#, 1
	rest 1
	note D_, 2
	octave 2
	callchannel Music_MeetEvilTrainer_2
	callchannel Music_MeetEvilTrainer_Ch2_2
	octave 3
	note D_, 2
	octave 2
	callchannel Music_MeetEvilTrainer_2
	note A#, 2
	note G_, 1
	rest 9
	loopchannel 0, Music_MeetEvilTrainer_branch_7f6c2

Music_MeetEvilTrainer_Ch2_1:
	note A#, 2
	note D#, 1
	rest 1
	note A#, 1
	rest 1
	note B_, 2
	octave 3
	note F#, 1
	octave 2
	rest 1
	note B_, 1
	rest 1
	endchannel

Music_MeetEvilTrainer_Ch2_2:
	octave 3
	note D_, 2
	octave 2
	note G_, 1
	rest 1
	octave 3
	note D_, 1
	rest 1
	note D#, 2
	note A#, 1
	rest 1
	note D#, 1
	rest 1
	endchannel


Music_MeetEvilTrainer_Ch3:: ; 7f6e6 (1f:76e6)
	notetype 12, 1, 0

Music_MeetEvilTrainer_branch_7f6ee::
	octave 4
	callchannel Music_MeetEvilTrainer_1
	callchannel Music_MeetEvilTrainer_Ch3_1
	callchannel Music_MeetEvilTrainer_1
	note F#, 2
	note D#, 1
	rest 1
	note A#, 2
	note B_, 1
	rest 1
	octave 5
	note D_, 2
	octave 4
	note B_, 1
	rest 1
	callchannel Music_MeetEvilTrainer_1
	callchannel Music_MeetEvilTrainer_Ch3_1
	callchannel Music_MeetEvilTrainer_1
	note F#, 2
	note D#, 1
	rest 9

	octave 5
	note D_, 2
	octave 4
	callchannel Music_MeetEvilTrainer_2
	callchannel Music_MeetEvilTrainer_Ch3_2
	octave 5
	note D_, 2
	octave 4
	callchannel Music_MeetEvilTrainer_2
	note F#, 2
	note G_, 1
	rest 1
	note A#, 2
	octave 5
	note D#, 1
	rest 1
	note F#, 2
	note D#, 1
	rest 1
	note D_, 2
	octave 4
	callchannel Music_MeetEvilTrainer_2
	callchannel Music_MeetEvilTrainer_Ch3_2
	octave 5
	note D_, 2
	octave 4
	callchannel Music_MeetEvilTrainer_2
	note A#, 2
	note G_, 1
	rest 9
	loopchannel 0, Music_MeetEvilTrainer_branch_7f6ee

Music_MeetEvilTrainer_Ch3_1:
	note A#, 2
	note D#, 1
	rest 1
	note A#, 1
	rest 1
	note B_, 2
	octave 5
	note F#, 1
	octave 4
	rest 1
	note B_, 1
	rest 1
	endchannel

Music_MeetEvilTrainer_Ch3_2:
	octave 5
	note D_, 2
	octave 4
	note G_, 1
	rest 1
	octave 5
	note D_, 1
	rest 1
	note D#, 2
	note A#, 1
	rest 1
	note D#, 1
	rest 1
	endchannel
