Music_OaksLab_Ch1::
	tempo 164
	volume 7, 7
	vibrato 6, 2, 5
	duty 1
	notetype 12, 9, 4
	rest 8
	octave 3
	B_ 1
	octave 4
	C# 1
	D# 1
	E_ 1
	C# 1
	D# 1
	E_ 1
	F# 1

Music_OaksLab_Ch1_branch_1::
	D# 6
	C# 1
	octave 3
	B_ 1
	F# 1
	G# 1
	F# 1
	rest 1
	F# 1
	rest 1
	A_ 1
	A# 1
	B_ 2
	F# 1
	G# 1
	F# 1
	rest 1
	F# 1
	rest 1
	F# 1
	G# 1
	F# 1
	rest 1
	A# 4
	octave 4
	D# 6
	C# 1
	octave 3
	B_ 1
	G# 1
	B_ 1
	D# 1
	rest 1
	D# 1
	rest 1
	A# 1
	B_ 1
	F# 1
	A# 1
	D# 1
	rest 1
	D# 1
	rest 1
	F# 1
	A# 1
	D# 1
	rest 1
	D# 1
	rest 1
	A# 4
	E_ 2
	octave 2
	B_ 1
	octave 3
	E_ 1
	G# 2
	E_ 1
	G# 1
	B_ 1
	octave 4
	C# 1
	octave 3
	B_ 1
	octave 4
	C# 1
	octave 3
	B_ 4
	F# 2
	D# 1
	F# 1
	B_ 2
	F# 1
	B_ 1
	octave 4
	D# 1
	E_ 1
	D# 1
	E_ 1
	D# 4
	octave 3
	A# 2
	octave 4
	C# 2
	E_ 2
	F# 2
	C# 2
	E_ 2
	F# 2
	E_ 2
	C# 2
	octave 3
	A# 1
	rest 1
	B_ 1
	rest 1
	octave 4
	C# 1
	rest 1
	D# 1
	rest 1
	E_ 1
	rest 1
	F_ 1
	rest 1
	F# 1
	rest 1
	loopchannel 0, Music_OaksLab_Ch1_branch_1

Music_OaksLab_Ch2::
	vibrato 8, 2, 4
	duty 3
	notetype 12, 10, 7
	octave 3
	B_ 1
	octave 4
	C# 1
	D# 1
	E_ 1
	C# 1
	D# 1
	E_ 1
	F# 1
	D# 1
	E_ 1
	F# 1
	G# 1
	E_ 1
	F# 1
	G# 1
	A# 1

Music_OaksLab_Ch2_branch_1::
	B_ 6
	A# 1
	G# 1
	F# 6
	F_ 1
	F# 1
	G# 4
	F# 8
	F# 4
	G# 6
	F# 1
	E_ 1
	D# 6
	D_ 1
	D# 1
	E_ 4
	D# 8
	D# 4
	E_ 6
	octave 3
	B_ 1
	octave 4
	E_ 1
	G# 8
	F# 6
	D# 1
	F# 1
	B_ 8
	A# 4
	B_ 2
	A# 2
	G# 4
	A# 2
	G# 2
	F# 2
	C# 1
	rest 1
	D# 1
	rest 1
	E_ 1
	rest 1
	F# 1
	rest 1
	G_ 1
	rest 1
	G# 1
	rest 1
	A# 1
	rest 1
	loopchannel 0, Music_OaksLab_Ch2_branch_1

Music_OaksLab_Ch3::
	vibrato 6, 3, 8
	notetype 12, 2, 6
	rest 8
	octave 3
	F# 1
	E_ 1
	D# 1
	C# 1
	E_ 1
	D# 1
	C# 1
	octave 2
	A# 1

Music_OaksLab_Ch3_branch_1::
	B_ 6
	octave 3
	D# 1
	F# 1
	B_ 6
	D# 1
	C# 1
	octave 2
	B_ 4
	octave 3
	B_ 8
	octave 4
	D# 4
	octave 3
	G# 6
	D# 1
	G# 1
	octave 2
	G# 6
	octave 3
	D# 1
	G# 1
	D# 6
	F# 2
	A# 2
	G# 2
	F# 2
	D# 2
	E_ 2
	rest 4
	E_ 1
	E_ 1
	E_ 1
	rest 1
	E_ 1
	rest 1
	B_ 4
	F# 2
	rest 4
	F# 1
	F# 1
	octave 2
	B_ 1
	rest 1
	B_ 1
	rest 1
	octave 3
	B_ 4
	F# 2
	octave 4
	F# 2
	octave 3
	E_ 2
	octave 4
	E_ 2
	octave 3
	C# 2
	octave 4
	C# 2
	octave 2
	A# 2
	octave 3
	A# 2
	octave 2
	F# 2
	octave 3
	A# 1
	rest 1
	G# 1
	rest 1
	F# 1
	rest 1
	E_ 1
	rest 1
	D# 1
	rest 1
	C# 1
	rest 1
	octave 2
	A# 1
	rest 1
	loopchannel 0, Music_OaksLab_Ch3_branch_1
