Music_Pokecenter_Ch1::
	tempo 149
	volume 7, 7
	duty 2
	toggleperfectpitch
	notetype 12, 6, 7
	octave 2

Music_Pokecenter_Ch1_branch_1::
	F# 2
	G_ 2
	E_ 2
	C_ 4
	C_ 2
	D# 2
	E_ 2
	C_ 4
	octave 1
	A# 2
	octave 2
	C_ 2
	octave 1
	A_ 4
	F_ 2
	A_ 2
	G_ 4
	octave 2
	B_ 2
	G_ 2
	E_ 2
	C_ 2
	D# 2
	E_ 2
	D_ 4
	F_ 2
	F# 2
	D_ 8
	octave 1
	B_ 4
	B_ 2
	G_ 2
	B_ 2
	rest 2
	octave 2
	D_ 4
	octave 3
	G_ 4
	F_ 2
	A_ 2
	G_ 4
	F_ 2
	A_ 2
	F# 2
	G_ 2
	D_ 2
	octave 2
	A# 1
	A_ 1
	octave 3
	D_ 1
	octave 2
	A# 1
	octave 3
	D_ 1
	C_ 1
	D# 1
	F_ 1
	A_ 1
	G_ 1
	C_ 2
	D_ 1
	F_ 1
	D# 2
	E_ 2
	F_ 2
	D_ 1
	C_ 1
	octave 2
	A# 1
	G_ 1
	F_ 1
	D_ 1
	octave 3
	C_ 2
	F_ 1
	D_ 1
	D# 2
	E_ 2
	C_ 2
	D_ 1
	D# 1
	C_ 1
	octave 2
	A# 1
	octave 3
	C_ 1
	D_ 1
	octave 2
	F# 2
	G_ 2
	E_ 2
	C_ 1
	rest 1
	C_ 4
	G_ 2
	F_ 2
	D# 2
	E_ 2
	G_ 8
	D_ 4
	D# 4
	G_ 6
	D_ 2
	D# 2
	F_ 2
	loopchannel 0, Music_Pokecenter_Ch1_branch_1


Music_Pokecenter_Ch2::
	duty 2
	notetype 12, 8, 0
	octave 3

Music_Pokecenter_Ch2_branch_1::
	F# 2
	G_ 2
	E_ 2
	G_ 10
	C_ 4
	octave 2
	A# 2
	octave 3
	C_ 1
	rest 1
	C_ 8
	octave 2
	G_ 8
	rest 4
	octave 3
	B_ 2
	octave 4
	C_ 2
	octave 3
	A_ 4
	F_ 2
	F# 2
	D_ 4
	C_ 2
	D_ 2
	octave 2
	B_ 3
	rest 1
	B_ 2
	G_ 2
	B_ 2
	rest 2
	A_ 12
	rest 8
	octave 3
	F# 3
	rest 1
	F# 2
	G_ 2
	E_ 4
	G_ 2
	E_ 2
	C_ 4
	D# 2
	E_ 2
	C_ 4
	octave 2
	A# 2
	octave 3
	C_ 2
	octave 2
	A_ 4
	F_ 2
	A_ 2
	G_ 8
	octave 3
	F# 2
	G_ 2
	E_ 2
	F# 2
	G_ 2
	E_ 2
	C_ 4
	octave 2
	G_ 2
	A_ 2
	octave 3
	C_ 4
	octave 2
	G_ 1
	rest 1
	G_ 2
	F_ 4
	D# 1
	rest 1
	D# 2
	G_ 2
	A_ 4
	octave 3
	C_ 2
	D# 2
	F_ 2
	loopchannel 0, Music_Pokecenter_Ch2_branch_1


Music_Pokecenter_Ch3::
	notetype 12, 2, 4

Music_Pokecenter_Ch3_branch_1::
	octave 4
	F# 2
	G_ 2
	E_ 2
	C_ 9
	rest 1
	C_ 4
	octave 3
	A# 2
	octave 4
	C_ 2
	octave 3
	F_ 8
	B_ 8
	rest 8
	octave 4
	D_ 4
	F_ 2
	F# 2
	octave 3
	A_ 8
	B_ 3
	rest 1
	B_ 2
	G_ 2
	B_ 2
	rest 2
	octave 4
	D_ 12
	octave 3
	G_ 4
	F_ 2
	A_ 2
	octave 4
	D_ 8
	F# 2
	G_ 2
	C_ 3
	rest 1
	C_ 4
	D# 2
	E_ 2
	C_ 4
	octave 3
	A# 2
	octave 4
	C_ 2
	octave 3
	A_ 4
	F_ 2
	A_ 2
	G_ 8
	octave 4
	D_ 4
	C_ 2
	octave 3
	F_ 2
	octave 4
	C_ 2
	E_ 2
	C_ 2
	octave 3
	A# 2
	octave 4
	D# 2
	E_ 2
	C_ 4
	octave 3
	A# 2
	octave 4
	C_ 2
	octave 3
	A_ 4
	A# 2
	A_ 1
	A# 1
	G_ 4
	F_ 2
	G_ 2
	D# 4
	loopchannel 0, Music_Pokecenter_Ch3_branch_1
