Music_TitleScreen_Ch1::
	tempo 0, 130
	stereopanning 119
	togglecall
	duty 0
	notetype 6, 15, 7
	octave 4
	note E_, 1
	note F_, 1
	notetype 12, 15, 7
	note G_, 15
	notetype 12, 1, 5
	octave 3
	note A_, 2
	note A_, 2
	notetype 12, 3, 5
	note A_, 2
	note A_, 2
	notetype 12, 5, 5
	note A_, 2
	note A_, 2
	notetype 12, 7, 5
	note A_, 2
	note A_, 2
	note A#, 2
	note A#, 2
	note A#, 2
	note A#, 2
	note A#, 2
	note A#, 2
	note A#, 2
	note A#, 2
	octave 3
.mainLoop
	note A_, 2
	callchannel Music_TitleScreen_Ch1_sub_2
	callchannel Music_TitleScreen_Ch1_sub_0
	note A#, 2
	note A_, 2
	note A_, 2
	note A_, 2
	note A_, 2
	note A_, 2
	notetype 12, 15, 7
	octave 1
	note F_, 2
	note D_, 2
	octave 1 ; X
	note G_, 6
	callchannel Music_TitleScreen_Ch1_sub_0
	note A#, 2
	note A_, 2
	note A_, 2
	note A_, 2
	notetype 12, 15, 7
	octave 1
	note F_, 4
	note C_, 4
	note D#, 2
	note D#, 6
	callchannel Music_TitleScreen_Ch1_sub_0
	notetype 12, 15, 7
	octave 1 ; X
	note A#, 6
	callchannel Music_TitleScreen_Ch1_sub_0
	notetype 12, 15, 7
	octave 1 ; X
	note A#, 6
	octave 1
	note C_, 6
	note D_, 6
	notetype 12, 7, 5
	callchannel Music_TitleScreen_Ch1_sub_2
	notetype 12, 12, 7
	octave 3
	note G_, 2
	note G_, 2
	note G_, 2
	note G_, 4
	note G_, 2
	note F_, 4
	note D_, 2
	octave 2
	note A_, 4
	notetype 12, 15, 7
	octave 1
	note F_, 2
	note D_, 2
	octave 1 ; X
	note G_, 2
	notetype 12, 12, 7
	octave 3
	note G_, 2
	note G_, 6
	note F_, 4
	note D_, 2
	note F_, 8
	notetype 12, 15, 7
	octave 1
	note F_, 4
	note C_, 4
	note D#, 2
	note D#, 2
	notetype 12, 12, 7
	octave 2
	note D_, 2 ; XX
	note G_, 2 ; XX
	note G_, 2 ; XX
	note G_, 6 ; XX
	note F_, 2 ; XX
	note D_, 4 ; XX
	octave 3
	notetype 12, 13, 7
	note D_, 2 ; XX
	note D_, 4 ; XX
	notetype 12, 8, 7
	octave 3
	note A#, 2
	note A#, 2
	note A#, 2
	notetype 12, 15, 7
	octave 1 ; X
	note A#, 4
	notetype 12, 8, 7
	octave 3
	note A#, 2
	notetype 12, 15, 7
	octave 1
	note C_, 4
	notetype 12, 8, 7
	octave 4
	note C_, 2
	notetype 12, 15, 7
	octave 1
	note D_, 4
	notetype 12, 8, 7
	octave 3
	note A_, 2
	note A_, 2
	note A_, 2
	note A_, 2
	note A_, 2
	callchannel Music_TitleScreen_Ch1_sub_1
	notetype 12, 6, 7
	octave 2
	note A#, 2
	octave 3
	note D_, 2
	note F_, 2
	octave 2
	note A_, 2
	octave 3
	note F_, 2
	octave 2
	note A_, 2
	octave 3
	note D_, 2
	notetype 12, 8, 7
	callchannel Music_TitleScreen_Ch1_sub_3
	note A_, 4
	octave 2
	note D_, 2
	note F_, 2
	note G_, 6
	octave 3
	notetype 12, 6, 7
	note G_, 2
	note A_, 2
	note D_, 2
	note G_, 2
	note A_, 2
	note D_, 2
	note A_, 2
	note C_, 2
	note F_, 2
	note A_, 2
	note C_, 2
	note F_, 2
	notetype 12, 8, 7
	octave 2
	note A#, 2
	octave 3
	note C_, 2
	note D_, 4
	note D_, 2
	note C_, 4
	octave 2
	note A#, 2
	octave 3
	note D_, 8
	rest 6
	callchannel Music_TitleScreen_Ch1_sub_1
	notetype 12, 8, 7
	rest 12
	note G_, 2
	callchannel Music_TitleScreen_Ch1_sub_3
	note A_, 8
	rest 2
	note D#, 16
	note F_, 16
	note A#, 6
	note A#, 6
	note A_, 8
	note D_, 2
	note D_, 2
	note F_, 2
	note G_, 4
	note G_, 6
	note D_, 2
	note D_, 2
	note F_, 2
	note G_, 4
	note A#, 2
	note F_, 2
	note G_, 2
	notetype 12, 1, 5
	note A#, 2
	note A#, 2
	notetype 12, 3, 5
	note A#, 2
	note A#, 2
	notetype 12, 5, 5
	note A#, 2
	note A#, 2
	notetype 12, 7, 5
	note A_, 2
	note A_, 2
	note A_, 2
	note A_, 2
	note A_, 2
	note A_, 2
	note A_, 2
	note A_, 2
	note A#, 2
	note A#, 2
	note A#, 2
	note A#, 2
	note A#, 2
	note A#, 2
	note A#, 2
	note A#, 2
	loopchannel 0, .mainLoop

Music_TitleScreen_Ch1_sub_0::
	notetype 12, 7, 5
	octave 3
	note A#, 2
	note A#, 2
	note A#, 2
	note A#, 2
	note A#, 2
	endchannel

Music_TitleScreen_Ch1_sub_1::
	notetype 12, 15, 7
	octave 2
	note D_, 2
	note F_, 2
	note G_, 6
	note D_, 2
	note D_, 2
	note F_, 2
	note G_, 4
	note G_, 4
	note F_, 6
	octave 3
	endchannel

Music_TitleScreen_Ch1_sub_2::
	octave 3
	note A_, 2
	note A_, 2
	note A_, 2
	note A_, 2
	notetype 12, 15, 7
	octave 1
	note D_, 2
	note F_, 2
	note G_, 6
	endchannel

Music_TitleScreen_Ch1_sub_3::
	note G_, 2
	note A#, 2
	octave 4
	note C_, 2
	note D_, 2
	note C_, 4
	octave 3
	note A#, 4
	endchannel


Music_TitleScreen_Ch2::
	duty 3
	notetype 6, 7, 0
	octave 4
	note E_, 1
	note F_, 1
	notetype 12, 7, 9
	note G_, 15
	notetype 12, 15, 0
	note G_, 16
	notetype 12, 15, 7
	note G_, 16
.mainLoop
	rest 10
	notetype 12, 7, 5
	octave 3
	duty 0
	note A_, 2
	note A_, 2
	note A_, 2
	note A#, 2
	notetype 12, 15, 7
	octave 4
	duty 3
	octave 4
	note D_, 2
	note D_, 2
	note D_, 2
	note D_, 4
	rest 2
	note D_, 2
	note C_, 4
	octave 3
	note A#, 2
	note F_, 4
	notetype 12, 7, 5
	duty 0
	note A_, 2
	note A_, 2
	notetype 12, 15, 7
	duty 3
	note A#, 2
	octave 4
	note D_, 4
	note D_, 4
	note C_, 2
	octave 3
	note A#, 2
	octave 4
	note C_, 6
	rest 4
	notetype 12, 7, 5
	duty 0
	octave 3
	note A_, 2
	note A_, 2
	note A_, 2
	note A_, 2
	note A_, 2
	note A#, 2
	note A#, 2
	notetype 12, 15, 7
	duty 3
	octave 4
	note D#, 4
	note D#, 4
	note F_, 2
	note D_, 4
	note C_, 4
	callchannel Music_TitleScreen_Ch2_sub_0
	note D_, 10
	rest 4
	notetype 12, 7, 5
	duty 0
	octave 3
	note A_, 2
	note A_, 2
	note A_, 2
	note A#, 2
	note A#, 2
	notetype 12, 15, 7
	duty 3
	octave 4
	note D_, 2
	note D_, 2
	note D_, 2
	note D_, 4
	note D_, 2
	note C_, 4
	octave 3
	note A#, 2
	note F_, 6
	rest 4
	octave 4
	note D_, 2
	note D_, 6
	note C_, 4
	octave 3
	note A#, 2
	octave 4
	note C_, 8
	rest 12
	octave 3
	note A#, 2
	octave 4
	note D#, 2
	note D#, 2
	note D#, 6
	note F_, 2
	note D_, 4
	note C_, 2
	callchannel Music_TitleScreen_Ch2_sub_0
	note D_, 12
	callchannel Music_TitleScreen_Ch2_sub_1
	note G_, 2
	note F_, 2
	note D_, 4
	notetype 12, 15, 5
	note C_, 6
	rest 10
	notetype 12, 15, 7
	octave 4
	note D_, 2
	note G_, 2
	note A_, 2
	note A#, 2
	note A_, 4
	note G_, 4
	note A_, 2
	note G_, 2
	octave 3
	note D_, 2
	note F_, 2
	note G_, 6
	octave 4
	note G_, 10
	note G_, 2
	note F_, 2
	note D_, 4
	note C_, 6
	octave 3
	note A#, 2
	octave 4
	note C_, 2
	note D_, 4
	note D_, 2
	note C_, 4
	octave 3
	note A#, 2
	octave 4
	note C_, 1
	note D_, 11
	callchannel Music_TitleScreen_Ch2_sub_1
	note G_, 2
	note F_, 2
	note G_, 4
	note G_, 4
	note A_, 1
	note G_, 1
	note F_, 4
	rest 6
	note D#, 2
	note G_, 2
	note A_, 2
	note A#, 2
	note A_, 4
	note G_, 4
	note F_, 8
	rest 2
	note D#, 2
	note A#, 4
	note A#, 4
	note D#, 4
	note F_, 4
	note A#, 4
	note A#, 8
	rest 2
	note A#, 6
	note A#, 6
	note A#, 1
	note A_, 7
	octave 3
	note D_, 2
	note D_, 2
	note F_, 2
	note G_, 4
	note G_, 6
	octave 4
	note D_, 2
	note D_, 2
	note F_, 2
	note G_, 4
	note A#, 2
	note F_, 2
	note G_, 14
	rest 16
	rest 16
	loopchannel 0, .mainLoop

Music_TitleScreen_Ch2_sub_0::
	octave 3
	note A#, 4
	rest 4
	note A#, 2
	octave 4
	note D_, 4
	note D_, 2
	note C_, 4
	octave 3
	note A#, 2
	octave 4
	endchannel

Music_TitleScreen_Ch2_sub_1::
	octave 3
	rest 2
	note D_, 2
	note F_, 2
	note G_, 6
	note D_, 2
	note D_, 2
	note F_, 2
	notetype 12, 12, 7
	note G_, 4
	octave 4
	notetype 12, 15, 7
	endchannel


Music_TitleScreen_Ch3::
	notetype 12, 1, 2
	octave 4
	callchannel Music_TitleScreen_Ch3_sub_0
.mainLoop
	callchannel Music_TitleScreen_Ch3_sub_0
	callchannel Music_TitleScreen_Ch3_sub_0
	callchannel Music_TitleScreen_Ch3_sub_0
	callchannel Music_TitleScreen_Ch3_sub_0
	note F_, 2
	note F_, 2
	note F_, 2
	callchannel Music_TitleScreen_Ch3_sub_2
	callchannel Music_TitleScreen_Ch3_sub_0
	callchannel Music_TitleScreen_Ch3_sub_0
	callchannel Music_TitleScreen_Ch3_sub_0
	note F_, 2
	note F_, 2
	note F_, 2
	callchannel Music_TitleScreen_Ch3_sub_2
	callchannel Music_TitleScreen_Ch3_sub_1
	note D_, 4
	octave 3
	note A#, 2
	octave 4
	note D_, 4
	note D_, 2
	octave 3
	note A#, 4
	octave 4
	callchannel Music_TitleScreen_Ch3_sub_1
	note F_, 4
	note C_, 2
	note F_, 4
	note F_, 2
	note C_, 4
	callchannel Music_TitleScreen_Ch3_sub_1
	note C_, 4
	octave 3
	note A_, 2
	octave 4
	note C_, 4
	note C_, 2
	octave 3
	note A_, 4
	octave 4
	note D_, 4
	octave 3
	note A#, 2
	octave 4
	note C_, 4
	note C_, 2
	note D_, 14
	octave 3
	note A#, 2
	octave 4
	note D_, 2
	note D#, 2
	callchannel Music_TitleScreen_Ch3_sub_3
	note C_, 4
	octave 3
	note A_, 2
	octave 4
	note C_, 4
	octave 3
	note A_, 2
	octave 4
	note C_, 4
	callchannel Music_TitleScreen_Ch3_sub_3
	octave 3
	note A_, 4
	octave 4
	note C_, 2
	octave 3
	note A_, 4
	note A_, 2
	octave 4
	note C_, 4
	octave 3
	note A#, 4
	octave 4
	note D#, 2
	octave 3
	note A#, 4
	note A#, 2
	octave 4
	note D#, 4
	octave 3
	note A_, 4
	octave 4
	note D_, 2
	octave 3
	note A_, 4
	note A_, 2
	octave 4
	note D_, 4
	note D_, 4
	note D_, 2
	note C_, 4
	note C_, 2
	note D_, 6
	rest 2
	note D_, 2
	note D_, 2
	note F_, 2
	note G_, 2
	note D_, 2
	note G_, 6
	note D_, 2
	note D_, 2
	note F_, 2
	note G_, 4
	note A#, 2
	note F_, 2
	note G_, 2
	note G_, 2
	note G_, 2
	note G_, 2
	note G_, 2
	note G_, 2
	note G_, 2
	note F_, 2
	note F_, 2
	note F_, 2
	note F_, 2
	note F_, 2
	note F_, 2
	note F_, 2
	note F_, 2
	loopchannel 0, .mainLoop

Music_TitleScreen_Ch3_sub_0::
	note G_, 2
	note G_, 2
	note G_, 2
	note G_, 2
	note G_, 2
	note G_, 2
	note G_, 2
	note G_, 2
	note F_, 2
	note F_, 2
	note F_, 2
	note F_, 2
	note F_, 2
	note F_, 2
	note F_, 2
	note F_, 2
	endchannel

Music_TitleScreen_Ch3_sub_1::
	note D#, 4
	octave 3
	note A#, 2
	octave 4
	note D#, 4
	note D#, 2
	octave 3
	note A#, 4
	octave 4
	endchannel

Music_TitleScreen_Ch3_sub_2::
	note G_, 2
	note G_, 2
	note G_, 2
	note F_, 2
	note F_, 2
	note F_, 2
	note F_, 2
	note F_, 2
	note F_, 2
	note F_, 2
	note F_, 2
	note F_, 2
	note F_, 2
	endchannel

Music_TitleScreen_Ch3_sub_3::
	note D#, 4
	octave 3
	note A#, 2
	octave 4
	note D#, 4
	octave 3
	note A#, 2
	octave 4
	note D#, 4
	endchannel


Music_TitleScreen_Ch4::
	dspeed 12
	dnote 16, cymbal3
	dnote 16, cymbal2
	rest 4
	dnote 1, snare2
	dnote 1, snare2
	dnote 1, snare2
	dnote 1, snare2
	dnote 2, snare2
	dnote 2, snare8
	dnote 2, snare8
	dnote 4, snare8
.mainLoop
	dnote 2, snare9
	dnote 2, snare9
	dnote 2, snare9
	dnote 4, snare9
	dnote 2, snare1
	dnote 2, snare9
	callchannel Music_TitleScreen_Ch4_sub_0
	dnote 4, mutedsnare3
	dnote 4, mutedsnare3
	dnote 2, mutedsnare3
	dnote 2, snare2
	dnote 2, mutedsnare3
	dnote 2, cymbal3
	callchannel Music_TitleScreen_Ch4_sub_0
	dnote 4, mutedsnare3
	dnote 2, mutedsnare3
	dnote 2, snare2
	dnote 2, mutedsnare3
	dnote 2, snare8
	dnote 2, mutedsnare3
	dnote 2, snare2
	dnote 4, snare2
	dnote 4, mutedsnare3
	dnote 4, mutedsnare3
	dnote 4, mutedsnare3
	callchannel Music_TitleScreen_Ch4_sub_0
	dnote 6, cymbal3
	dnote 6, cymbal2
	dnote 4, cymbal3
	dnote 4, mutedsnare3
	dnote 4, mutedsnare3
	dnote 4, mutedsnare3
	dnote 4, snare1
.loop1
	dnote 4, mutedsnare3
	dnote 4, snare1
	dnote 4, mutedsnare3
	dnote 4, mutedsnare3
	loopchannel 3, .loop1
	dnote 4, mutedsnare3
	dnote 2, snare1
	dnote 2, cymbal3
	dnote 2, mutedsnare3
	dnote 2, cymbal2
	dnote 2, mutedsnare3
	dnote 2, cymbal3
	dnote 4, cymbal3
	dnote 4, snare1
	dnote 4, mutedsnare3
	dnote 4, mutedsnare3
	dnote 4, mutedsnare3
	dnote 4, snare1
	dnote 4, mutedsnare3
	dnote 2, snare1
	dnote 1, snare1
	dnote 1, snare1
	dnote 6, mutedsnare3
	dnote 6, mutedsnare3
	dnote 4, mutedsnare3
	rest 16
.loop2
	callchannel Music_TitleScreen_Ch4_sub_1
	loopchannel 3, .loop2
	dnote 4, mutedsnare3
	dnote 4, snare1
	dnote 4, mutedsnare3
	dnote 2, snare1
	dnote 1, snare1
	dnote 1, snare1
	dnote 4, snare1
	dnote 4, snare1
	dnote 4, mutedsnare3
	dnote 4, snare1
	callchannel Music_TitleScreen_Ch4_sub_1
	dnote 4, snare8
	dnote 2, snare1
	dnote 6, cymbal3
	dnote 4, cymbal3
	rest 14
	dnote 2, cymbal3
.loop3
	callchannel Music_TitleScreen_Ch4_sub_1
	loopchannel 6, .loop3
	dnote 4, cymbal3
	dnote 2, snare1
	dnote 4, cymbal2
	dnote 2, snare1
	dnote 4, cymbal3
	rest 4
	dnote 2, mutedsnare3
	dnote 2, mutedsnare3
	dnote 2, mutedsnare3
	dnote 2, mutedsnare3
	dnote 2, mutedsnare3
	dnote 2, mutedsnare3
	dnote 6, cymbal3
	dnote 6, cymbal2
	dnote 2, snare8
	dnote 2, snare8
	dnote 16, cymbal3
	rest 16
	rest 16
	rest 2
	loopchannel 0, .mainLoop

Music_TitleScreen_Ch4_sub_0::
	dnote 4, mutedsnare3
	dnote 4, mutedsnare3
	dnote 4, mutedsnare3
	dnote 4, mutedsnare3
	endchannel

Music_TitleScreen_Ch4_sub_1::
	dnote 4, mutedsnare3
	dnote 4, snare1
	dnote 4, mutedsnare3
	dnote 4, snare1
	endchannel
